<svg aria-hidden="true" style="position: absolute; width: 0; height: 0; overflow: hidden;" version="1.1" xmlns="http://www.w3.org/2000/svg" xmlns:xlink="http://www.w3.org/1999/xlink">
<defs>
<symbol id="icon-web" viewBox="0 0 32 32">
<path d="M12.626 22.425c-0.121 0-0.243-0.042-0.342-0.126l-3.419-2.911c-0.118-0.1-0.186-0.247-0.186-0.402s0.068-0.302 0.186-0.402l3.419-2.911c0.222-0.189 0.555-0.162 0.745 0.060s0.162 0.556-0.060 0.745l-2.946 2.509 2.946 2.509c0.222 0.189 0.249 0.523 0.060 0.745-0.105 0.123-0.253 0.186-0.403 0.186z"></path>
<path d="M19.374 22.425c-0.149 0-0.298-0.063-0.402-0.186-0.189-0.222-0.162-0.555 0.060-0.745l2.946-2.509-2.946-2.509c-0.222-0.189-0.249-0.522-0.060-0.745s0.523-0.249 0.744-0.060l3.419 2.911c0.118 0.1 0.186 0.247 0.186 0.402s-0.068 0.302-0.186 0.402l-3.419 2.911c-0.099 0.085-0.221 0.126-0.342 0.126z"></path>
<path d="M14.79 24.609c-0.036 0-0.073-0.004-0.11-0.012-0.285-0.060-0.468-0.34-0.408-0.626l2.131-10.116c0.060-0.285 0.34-0.468 0.626-0.408s0.468 0.34 0.408 0.626l-2.131 10.116c-0.052 0.249-0.272 0.42-0.516 0.42z"></path>
<path d="M28.453 30.12h-24.906c-1.956 0-3.547-1.591-3.547-3.547v-21.139c0-1.956 1.591-3.547 3.547-3.547h24.906c1.956 0 3.547 1.591 3.547 3.547v21.139c0 1.956-1.591 3.547-3.547 3.547zM3.547 2.944c-1.373 0-2.491 1.117-2.491 2.491v21.139c0 1.373 1.117 2.491 2.491 2.491h24.906c1.373 0 2.491-1.117 2.491-2.491v-21.139c0-1.373-1.117-2.491-2.491-2.491h-24.906z"></path>
<path d="M31.472 10.346h-30.943c-0.292 0-0.528-0.236-0.528-0.528s0.236-0.528 0.528-0.528h30.943c0.292 0 0.528 0.237 0.528 0.528s-0.236 0.528-0.528 0.528z"></path>
<path d="M9.026 7.818c-0.922 0-1.672-0.75-1.672-1.672s0.75-1.672 1.672-1.672c0.922 0 1.672 0.75 1.672 1.672s-0.75 1.672-1.672 1.672zM9.026 5.531c-0.339 0-0.615 0.276-0.615 0.615s0.276 0.615 0.615 0.615c0.339 0 0.615-0.276 0.615-0.615s-0.276-0.615-0.615-0.615z"></path>
<path d="M3.891 7.802c-0.922 0-1.672-0.75-1.672-1.672s0.75-1.672 1.672-1.672c0.922 0 1.672 0.75 1.672 1.672s-0.75 1.672-1.672 1.672zM3.891 5.515c-0.339 0-0.615 0.276-0.615 0.615s0.276 0.615 0.615 0.615c0.339 0 0.615-0.276 0.615-0.615s-0.276-0.615-0.615-0.615z"></path>
<path d="M14.163 7.834c-0.921 0-1.672-0.75-1.672-1.672s0.75-1.672 1.672-1.672c0.922 0 1.672 0.75 1.672 1.672s-0.75 1.672-1.672 1.672zM14.163 5.547c-0.339 0-0.615 0.276-0.615 0.615s0.276 0.615 0.615 0.615c0.339 0 0.615-0.276 0.615-0.615s-0.276-0.615-0.615-0.615z"></path>
</symbol>
<symbol id="icon-project" viewBox="0 0 32 32">
<path d="M31.466 0h-24c-0.295 0-0.533 0.239-0.533 0.533v8h1.067v-7.467h22.933v29.333c0.005 0.28-0.211 0.515-0.491 0.533-0.046 0-0.092-0.004-0.138-0.005-0.094-0.003-0.189-0.005-0.282-0.014-0.008 0-0.015 0-0.023-0.003-1.742-0.19-3.118-1.565-3.31-3.307 0-0.008-0.003-0.016-0.004-0.023-0.013-0.127-0.019-0.254-0.019-0.381v-1.067c0-0.295-0.239-0.533-0.533-0.533h-18.133v-9.6h-1.067v9.6h-4.267c-0.295 0-0.533 0.239-0.533 0.533v1.067c0.003 2.65 2.15 4.797 4.8 4.8h23.52c0.866-0.023 1.553-0.734 1.547-1.6v-29.867c0-0.295-0.239-0.533-0.533-0.533zM6.933 30.933c-2.061-0.002-3.731-1.672-3.733-3.733v-0.533h22.4v0.533c0.001 0.176 0.011 0.352 0.030 0.526 0.005 0.046 0.014 0.091 0.020 0.137 0.018 0.129 0.039 0.258 0.067 0.384 0.010 0.044 0.022 0.088 0.033 0.132 0.032 0.129 0.069 0.255 0.112 0.38 0.012 0.036 0.025 0.071 0.038 0.107 0.048 0.132 0.103 0.261 0.164 0.389 0.013 0.026 0.025 0.053 0.037 0.077 0.067 0.135 0.14 0.266 0.22 0.394 0.011 0.017 0.020 0.035 0.031 0.053 0.087 0.136 0.181 0.268 0.281 0.395l0.017 0.023c0.116 0.146 0.241 0.286 0.373 0.418 0.115 0.114 0.234 0.22 0.357 0.32l-20.449-0.002z"></path>
<path d="M17.6 14.933c0.141 0 0.277-0.056 0.377-0.156l2.133-2.133c0.208-0.208 0.208-0.546 0-0.754l-2.133-2.133c-0.1-0.1-0.236-0.156-0.377-0.156h-14.933c-1.473 0-2.667 1.194-2.667 2.667s1.194 2.667 2.667 2.667h14.933zM17.462 10.75l1.517 1.517-1.517 1.517-0.379-1.517 0.379-1.517zM4.267 10.667h12.117l-0.267 1.067h-10.784v1.067h10.784l0.267 1.067h-12.117v-3.2zM1.067 12.267c0-0.884 0.716-1.6 1.6-1.6h0.533v3.2h-0.533c-0.884 0-1.6-0.716-1.6-1.6z"></path>
<path d="M12.266 22.933h16c0.295 0 0.533-0.239 0.533-0.533v-16c-0-0.295-0.239-0.533-0.534-0.533-0.141 0-0.277 0.056-0.377 0.156l-16 16c-0.208 0.208-0.208 0.546 0 0.754 0.1 0.1 0.236 0.156 0.377 0.156zM27.733 7.687v1.379h-1.067v1.067h1.067v1.067h-1.067v1.067h1.067v1.067h-1.067v1.067h1.067v1.067h-1.067v1.067h1.067v1.067h-1.067v1.067h1.067v1.067h-1.067v1.067h1.067v1.067h-1.067v-1.067h-1.067v1.067h-1.067v-1.067h-1.067v1.067h-1.067v-1.067h-1.067v1.067h-1.067v-1.067h-1.067v1.067h-1.067v-1.067h-1.067v1.067h-1.067v-1.067h-1.067v1.067h-1.379l14.179-14.179z"></path>
<path d="M19.993 19.733h5.075c0.294 0 0.533-0.239 0.533-0.533v-5.075c0-0.294-0.239-0.533-0.533-0.533-0.141 0-0.277 0.056-0.377 0.156l-5.075 5.075c-0.208 0.208-0.208 0.546 0 0.754 0.1 0.1 0.236 0.156 0.377 0.156zM24.534 15.413v3.253h-3.253l3.253-3.253z"></path>
<path d="M24.534 3.2h-10.667v1.067h10.667v-1.067z"></path>
<path d="M26.134 5.333h-13.867v1.067h13.867v-1.067z"></path>
<path d="M12.267 16.533h-3.2v1.067h3.2v-1.067z"></path>
<path d="M11.2 18.667h-2.133v1.067h2.133v-1.067z"></path>
</symbol>
<symbol id="icon-teg" width="30" height="30" viewBox="0 0 30 30" xmlns="http://www.w3.org/2000/svg">
<path d="M11.8364 21.0235C11.7231 21.0235 11.609 20.9845 11.5158 20.9052L8.31084 18.1762C8.20029 18.082 8.13672 17.9443 8.13672 17.799C8.13672 17.6539 8.20056 17.5162 8.31084 17.422L11.5158 14.693C11.7239 14.5155 12.0365 14.5407 12.214 14.7488C12.3911 14.9572 12.3663 15.2698 12.1579 15.4469L9.39594 17.799L12.1579 20.151C12.3663 20.3284 12.3911 20.641 12.214 20.8491C12.1159 20.9644 11.9766 21.0235 11.8364 21.0235Z" />
<path d="M18.1635 21.0235C18.0234 21.0235 17.8841 20.9644 17.7862 20.8491C17.6088 20.641 17.6339 20.3284 17.8421 20.151L20.604 17.799L17.8421 15.4469C17.6339 15.2698 17.6088 14.9572 17.7862 14.7488C17.9634 14.5407 18.2763 14.5155 18.4841 14.693L21.6891 17.422C21.7996 17.5162 21.8632 17.6539 21.8632 17.799C21.8632 17.9443 21.7996 18.082 21.6891 18.1762L18.4841 20.9052C18.391 20.9845 18.2768 21.0235 18.1635 21.0235Z" />
<path d="M13.8652 23.0706C13.8312 23.0706 13.7969 23.067 13.7624 23.0598C13.4949 23.0034 13.3235 22.7406 13.3799 22.473L15.3773 12.9894C15.4337 12.7219 15.6963 12.5505 15.9641 12.6069C16.2317 12.6633 16.403 12.9259 16.3466 13.1937L14.3492 22.6773C14.3 22.9105 14.0943 23.0706 13.8652 23.0706Z"/>
<path d="M26.6745 28.2374H3.32547C1.49193 28.2374 0 26.7457 0 24.9119V5.09451C0 3.26097 1.49193 1.76904 3.32547 1.76904H26.6745C28.5081 1.76904 30 3.26097 30 5.09451V24.9119C30 26.7457 28.5081 28.2374 26.6745 28.2374ZM3.32547 2.75961C2.03807 2.75961 0.990566 3.80711 0.990566 5.09451V24.9119C0.990566 26.1993 2.03807 27.2468 3.32547 27.2468H26.6745C27.9619 27.2468 29.0094 26.1993 29.0094 24.9119V5.09451C29.0094 3.80711 27.9619 2.75961 26.6745 2.75961H3.32547Z" />
<path d="M29.5047 9.69955H0.495283C0.221661 9.69955 0 9.47789 0 9.20427C0 8.93092 0.221661 8.70898 0.495283 8.70898H29.5047C29.7783 8.70898 30 8.93092 30 9.20427C30 9.47789 29.7783 9.69955 29.5047 9.69955Z" />
<path d="M8.46191 7.32959C7.59793 7.32959 6.89453 6.62619 6.89453 5.76221C6.89453 4.89795 7.59793 4.19482 8.46191 4.19482C9.32617 4.19482 10.0293 4.89795 10.0293 5.76221C10.0293 6.62619 9.32617 7.32959 8.46191 7.32959ZM8.46191 5.18539C8.14407 5.18539 7.8851 5.44409 7.8851 5.76221C7.8851 6.08033 8.14407 6.33902 8.46191 6.33902C8.78003 6.33902 9.03873 6.08033 9.03873 5.76221C9.03873 5.44409 8.78003 5.18539 8.46191 5.18539Z" />
<path d="M3.64746 7.31445C2.7832 7.31445 2.08008 6.61133 2.08008 5.74707C2.08008 4.88281 2.7832 4.17969 3.64746 4.17969C4.51171 4.17969 5.21484 4.88281 5.21484 5.74707C5.21484 6.61133 4.51171 7.31445 3.64746 7.31445ZM3.64746 5.17025C3.32962 5.17025 3.07064 5.42923 3.07064 5.74707C3.07064 6.06519 3.32962 6.32389 3.64746 6.32389C3.96558 6.32389 4.22427 6.06519 4.22427 5.74707C4.22427 5.42923 3.96558 5.17025 3.64746 5.17025Z" />
<path d="M13.278 7.34445C12.4141 7.34445 11.7109 6.64133 11.7109 5.77707C11.7109 4.91309 12.4141 4.20996 13.278 4.20996C14.1423 4.20996 14.8454 4.91309 14.8454 5.77707C14.8454 6.64133 14.1423 7.34445 13.278 7.34445ZM13.278 5.20025C12.9602 5.20025 12.7015 5.45895 12.7015 5.77707C12.7015 6.09519 12.9602 6.35388 13.278 6.35388C13.5962 6.35388 13.8549 6.09519 13.8549 5.77707C13.8549 5.45895 13.5962 5.20025 13.278 5.20025Z" />
</symbol>
<symbol width="16" height="15" viewBox="0 0 16 15" id="uncheck" xmlns="http://www.w3.org/2000/svg">
<path d="M14.2222 1.66667V13.3333H1.77778V1.66667H14.2222ZM14.2222 0H1.77778C0.8 0 0 0.75 0 1.66667V13.3333C0 14.25 0.8 15 1.77778 15H14.2222C15.2 15 16 14.25 16 13.3333V1.66667C16 0.75 15.2 0 14.2222 0Z" fill="#212121"/>
</symbol>
<symbol width="16" height="15" viewBox="0 0 16 15" id="check" xmlns="http://www.w3.org/2000/svg">
<rect width="16" height="15" rx="2" fill="#2196F3"/>
<path d="M3.95703 7.75166L3.88825 7.68604L3.81923 7.75141L2.93123 8.59258L2.85486 8.66492L2.93097 8.73753L6.42671 12.0724L6.49574 12.1382L6.56476 12.0724L14.069 4.91352L14.1449 4.84116L14.069 4.76881L13.1873 3.92764L13.1183 3.86183L13.0493 3.92761L6.49577 10.1735L3.95703 7.75166Z" fill="white" stroke="white" stroke-width="0.2"/>
</symbol>
</defs>
</svg>
